<?xml version="1.0" standalone="no"?>
<!DOCTYPE svg PUBLIC "-//W3C//DTD SVG 20010904//EN"
 "http://www.w3.org/TR/2001/REC-SVG-20010904/DTD/svg10.dtd">
<svg version="1.0" xmlns="http://www.w3.org/2000/svg"
 width="960.000000pt" height="958.000000pt" viewBox="0 0 960.000000 958.000000"
 preserveAspectRatio="xMidYMid meet">
<metadata>
Created by potrace 1.16, written by Peter Selinger 2001-2019
</metadata>
<g transform="translate(0.000000,958.000000) scale(0.100000,-0.100000)"
fill="#000000" stroke="none">
<path d="M0 7735 l0 -1845 530 0 530 0 0 165 0 165 338 -2 337 -3 3 -172 2
-173 90 0 90 0 0 -175 0 -175 -90 0 -90 0 0 -682 c0 -436 4 -696 10 -720 12
-40 24 -45 145 -51 l50 -2 0 -175 0 -175 -248 2 c-266 2 -363 12 -432 44 -66
31 -131 93 -160 153 -38 77 -44 214 -45 954 l0 632 -530 0 -530 0 0 -2750 0
-2750 4800 0 4800 0 0 4790 0 4790 -4800 0 -4800 0 0 -1845z m5858 -1496 l2
-166 -113 -6 c-62 -3 -120 -9 -129 -12 -24 -9 -38 -50 -38 -110 l0 -55 45 0
c25 0 123 -1 218 -1 l172 0 6 138 c7 164 20 204 89 266 95 86 204 109 520 111
l215 1 3 -166 2 -166 -113 -6 c-62 -3 -120 -9 -129 -12 -25 -10 -38 -46 -41
-115 l-2 -65 143 -3 142 -3 0 -174 0 -175 -80 0 -80 0 -2 -902 -3 -903 -335 0
-335 0 -3 902 -2 902 -73 3 c-39 2 -109 2 -154 0 l-83 -3 -2 -902 -3 -902
-332 -3 -333 -2 0 905 0 905 -70 0 -70 0 0 175 0 174 68 3 67 3 6 140 c9 202
41 266 167 329 96 48 223 64 492 62 l165 -1 3 -166z m-2720 -649 c1 -201 0
-375 -3 -387 -5 -20 -12 -23 -53 -23 -164 0 -288 -65 -324 -171 -8 -24 -14
-226 -17 -664 l-6 -630 -335 0 -335 0 0 1105 0 1105 325 3 c179 1 330 0 335
-2 8 -3 7 -44 -2 -137 -7 -73 -11 -134 -9 -136 2 -2 18 21 36 51 68 119 177
210 290 240 104 28 95 63 98 -354z m1067 360 c198 -29 323 -86 421 -192 139
-150 147 -219 148 -1288 l1 -755 -325 0 -325 0 -3 94 -3 95 -33 -50 c-125
-185 -373 -233 -613 -118 -176 84 -218 205 -211 604 8 404 12 408 554 635 226
94 258 115 274 171 18 64 9 330 -12 370 -33 61 -130 71 -166 16 -14 -22 -18
-58 -20 -244 l-4 -218 -315 0 -315 0 4 178 c6 192 23 291 64 375 81 164 270
286 499 322 98 16 286 18 380 5z m4680 -20 c143 -37 239 -90 338 -187 109
-107 160 -264 174 -530 l6 -123 -315 0 -315 0 -5 193 c-6 214 -17 260 -67 278
-35 14 -84 3 -107 -22 -18 -20 -19 -51 -22 -678 -2 -449 0 -668 8 -693 6 -20
22 -51 36 -68 21 -24 34 -30 66 -30 100 0 111 31 116 323 l4 227 299 0 299 0
0 -82 c-1 -133 -19 -328 -36 -387 -21 -75 -63 -154 -118 -227 -140 -187 -393
-274 -708 -244 -220 20 -354 75 -460 189 -94 99 -139 202 -169 386 -7 41 -13
253 -16 515 -8 703 12 823 160 969 110 108 242 175 410 207 103 19 318 12 422
-16z m-1215 -1110 l0 -1110 -345 0 -345 0 0 1110 0 1110 345 0 345 0 0 -1110z
m-2575 -1440 l0 -145 -50 0 -50 0 -3 134 c-1 74 0 141 2 148 4 9 21 12 53 11
l48 -3 0 -145z m143 -2 l3 -148 -51 0 -50 0 0 148 0 147 48 0 47 0 3 -147z
m662 101 c0 -11 5 -17 10 -14 18 11 24 -27 7 -40 -23 -17 -25 -143 -2 -151 8
-4 15 -15 15 -25 0 -16 -7 -19 -43 -19 -23 0 -53 7 -65 16 -20 13 -22 24 -22
95 0 46 -4 79 -10 79 -14 0 -13 20 3 53 10 24 18 27 60 27 41 0 47 -3 47 -21z
m-1232 -29 c22 -14 32 -27 32 -45 0 -23 -4 -25 -45 -25 -41 0 -45 2 -45 25 0
16 -6 25 -15 25 -13 0 -15 -13 -13 -77 3 -78 18 -104 28 -47 5 26 9 29 48 31
40 2 42 0 42 -27 0 -36 -20 -57 -71 -70 -48 -13 -105 -4 -130 21 -15 15 -19
34 -19 92 0 75 9 95 50 110 35 13 106 6 138 -13z m275 -8 c18 -19 22 -34 22
-91 0 -43 -5 -74 -14 -84 -32 -40 -147 -44 -192 -8 -18 15 -22 28 -22 89 0
102 23 124 126 119 44 -3 63 -9 80 -25z m544 -6 c13 -15 23 -40 23 -57 l0 -29
-65 0 -65 0 0 -35 c0 -24 5 -35 15 -35 9 0 15 9 15 25 0 23 3 25 50 25 41 0
50 -3 50 -18 0 -54 -72 -88 -153 -73 -71 13 -77 22 -77 111 0 104 19 122 124
116 50 -2 63 -7 83 -30z m253 8 c10 -10 20 -28 22 -39 3 -18 -3 -20 -42 -20
-39 0 -45 3 -48 23 -2 12 -10 22 -18 22 -11 0 -14 -17 -14 -75 0 -43 4 -75 10
-75 6 0 13 -1 18 -2 4 -1 9 11 12 28 5 25 10 29 43 31 36 2 37 1 37 -31 0 -26
-7 -38 -27 -52 -55 -35 -175 -16 -187 29 -3 12 -6 47 -6 78 0 85 31 112 123
106 41 -2 63 -9 77 -23z m310 -94 l0 -120 -50 0 -50 0 0 120 0 120 50 0 50 0
0 -120z m238 100 c31 -19 32 -21 32 -93 0 -59 -4 -77 -19 -91 -44 -40 -154
-43 -192 -5 -15 15 -19 34 -19 85 0 101 19 122 115 123 33 1 61 -6 83 -19z
m287 0 c13 -14 15 -37 13 -116 l-3 -99 -47 -3 -47 -3 -3 97 c-2 65 -7 99 -15
101 -9 3 -13 -22 -15 -94 l-3 -98 -49 0 -50 0 -3 109 c-1 59 0 112 2 116 3 5
50 8 104 8 83 0 102 -3 116 -18z m237 -7 c30 -31 17 -53 -31 -53 -31 0 -40 4
-44 21 -6 22 -32 22 -32 -1 0 -14 10 -21 78 -49 45 -19 47 -22 47 -59 0 -30
-5 -41 -22 -50 -63 -31 -154 -20 -183 21 -26 37 -19 47 30 47 37 0 45 -3 45
-19 0 -19 23 -35 34 -24 17 17 1 36 -51 61 -65 31 -79 48 -69 85 8 33 46 47
119 44 43 -3 63 -9 79 -24z"/>
<path d="M4034 4710 c-67 -55 -109 -108 -125 -161 -17 -53 -23 -316 -10 -379
16 -75 42 -100 103 -100 56 0 84 21 93 72 3 18 4 165 3 326 l-3 292 -61 -50z"/>
</g>
</svg>
